<svg xmlns="http://www.w3.org/2000/svg" viewBox="0 0 959.42 189.07"><defs><style>.cls-1{fill:#034ea2;}.cls-2{fill:#fbed21;}</style></defs><g id="Layer_2" data-name="Layer 2"><g id="Layer_1-2" data-name="Layer 1"><rect class="cls-1" width="283.6" height="189.07"/><polyline class="cls-2" points="135.76 41.2 141.74 36.83 147.73 41.2 145.45 34.13 151.53 29.77 144.03 29.77 141.74 22.62 139.45 29.77 131.96 29.77 138.03 34.13 135.76 41.2"/><polyline class="cls-2" points="104.79 49.52 110.77 45.15 116.75 49.52 114.48 42.45 120.56 38.09 113.06 38.09 110.77 30.93 108.48 38.09 100.99 38.09 107.06 42.45 104.79 49.52"/><polyline class="cls-2" points="88.11 53.64 85.82 60.8 78.33 60.8 84.41 65.16 82.13 72.23 88.11 67.86 94.1 72.23 91.82 65.16 97.89 60.8 90.41 60.8 88.11 53.64"/><polyline class="cls-2" points="79.8 98.79 85.78 103.16 83.51 96.09 89.58 91.73 82.09 91.73 79.8 84.57 77.51 91.74 70.02 91.73 76.09 96.09 73.82 103.16 79.8 98.79"/><polyline class="cls-2" points="90.41 122.75 88.11 115.59 85.82 122.76 78.33 122.75 84.41 127.12 82.13 134.18 88.11 129.8 94.1 134.18 91.82 127.12 97.89 122.75 90.41 122.75"/><polyline class="cls-2" points="113.11 145.45 110.82 138.3 108.53 145.46 101.03 145.45 107.11 149.82 104.84 156.88 110.82 152.51 116.8 156.88 114.53 149.82 120.6 145.45 113.11 145.45"/><polyline class="cls-2" points="144.04 153.68 141.75 146.52 139.46 153.69 131.97 153.68 138.04 158.05 135.77 165.11 141.75 160.74 147.73 165.11 145.45 158.05 151.53 153.68 144.04 153.68"/><polyline class="cls-2" points="174.97 145.45 172.68 138.3 170.38 145.46 162.9 145.45 168.97 149.82 166.7 156.88 172.68 152.51 178.66 156.88 176.38 149.82 182.46 145.45 174.97 145.45"/><polyline class="cls-2" points="197.68 122.75 195.38 115.59 193.09 122.76 185.6 122.75 191.68 127.12 189.4 134.18 195.38 129.8 201.37 134.18 199.09 127.12 205.16 122.75 197.68 122.75"/><polyline class="cls-2" points="213.39 91.64 205.9 91.64 203.6 84.48 201.31 91.65 193.82 91.64 199.9 96.01 197.63 103.07 203.6 98.69 209.59 103.07 207.31 96.01 213.39 91.64"/><polyline class="cls-2" points="189.4 72.13 195.38 67.77 201.37 72.13 199.09 65.07 205.16 60.71 197.68 60.71 195.38 53.55 193.09 60.72 185.6 60.71 191.68 65.07 189.4 72.13"/><polyline class="cls-2" points="172.77 30.94 170.48 38.1 162.99 38.09 169.06 42.46 166.78 49.52 172.77 45.15 178.75 49.52 176.48 42.46 182.56 38.09 175.06 38.09 172.77 30.94"/><path class="cls-1" d="M346.83,42.05c-1,.45-2,.88-2.82,1.27a28,28,0,0,1-3.3,1.25,34.32,34.32,0,0,1-3.75.92,24.56,24.56,0,0,1-4.46.38,25.52,25.52,0,0,1-8.34-1.29,17,17,0,0,1-6.53-4,18.42,18.42,0,0,1-4.25-6.84,27.84,27.84,0,0,1-1.53-9.65,27.52,27.52,0,0,1,1.47-9.31,18.83,18.83,0,0,1,4.25-6.94,17.73,17.73,0,0,1,6.5-4.19,23.53,23.53,0,0,1,8.45-1.45,29.12,29.12,0,0,1,6.79.82,37.06,37.06,0,0,1,7.52,2.89v6.66h-.43a25,25,0,0,0-6.91-4.25A20,20,0,0,0,332.16,7a15.29,15.29,0,0,0-5.77,1,12.52,12.52,0,0,0-4.57,3.22,14.77,14.77,0,0,0-3.05,5.36,23.73,23.73,0,0,0-1.09,7.49,21.55,21.55,0,0,0,1.21,7.65,15.27,15.27,0,0,0,3.1,5.21,12.24,12.24,0,0,0,4.63,3.1,15.61,15.61,0,0,0,5.59,1,20.51,20.51,0,0,0,7.59-1.39,21.73,21.73,0,0,0,6.63-4.16h.4Z"/><path class="cls-1" d="M381.29,29.3q0,7.74-4,12.21a14.91,14.91,0,0,1-21.29,0q-3.94-4.47-4-12.21t4-12.22a14.86,14.86,0,0,1,21.29,0Q381.29,21.58,381.29,29.3Zm-5.49,0c0-4.09-.81-7.14-2.41-9.13a9,9,0,0,0-13.41,0c-1.6,2-2.39,5-2.39,9.13s.8,7,2.4,9a8.84,8.84,0,0,0,13.39,0C375,36.32,375.8,33.31,375.8,29.3Z"/><path class="cls-1" d="M406.3,29.22H388.63V24.09H406.3Z"/><path class="cls-1" d="M432.89,6.19h-.28c-.59-.17-1.35-.34-2.3-.52a13.43,13.43,0,0,0-2.49-.27q-3.42,0-5,1.52c-1,1-1.54,2.83-1.54,5.48v1.07h9.6V18h-9.43V45.11h-5.33V18h-3.59V13.47h3.59v-1q0-5.64,2.81-8.66t8.1-3a25.94,25.94,0,0,1,3.21.17c1,.11,1.83.24,2.62.39Z"/><path class="cls-1" d="M462.49,45.11h-5.33V41.59A25.49,25.49,0,0,1,452,44.85,12.83,12.83,0,0,1,446.57,46a10,10,0,0,1-7.76-3Q436,39.89,436,34V13.47h5.33v18a32.53,32.53,0,0,0,.22,4.13,7.73,7.73,0,0,0,1,2.93,4.59,4.59,0,0,0,2,1.81,8.62,8.62,0,0,0,3.54.57,11.32,11.32,0,0,0,4.52-1.08,20.87,20.87,0,0,0,4.57-2.75V13.47h5.33Z"/><path class="cls-1" d="M499.42,45.11h-5.33v-18a31.09,31.09,0,0,0-.25-4.09,7.58,7.58,0,0,0-.94-3,4.32,4.32,0,0,0-2-1.77,8.86,8.86,0,0,0-3.45-.58,11,11,0,0,0-4.56,1.08,22.86,22.86,0,0,0-4.56,2.75V45.11H473V13.47h5.33V17a21.78,21.78,0,0,1,5.15-3.22,13.49,13.49,0,0,1,5.47-1.17q5.13,0,7.81,3.09t2.7,8.89Z"/><path class="cls-1" d="M535.33,45.11H530V41.79a19.32,19.32,0,0,1-4.79,3.09,13.1,13.1,0,0,1-5.4,1.1,10.72,10.72,0,0,1-9-4.36c-2.21-2.9-3.32-6.94-3.32-12.09a20.89,20.89,0,0,1,1.14-7.16,16.74,16.74,0,0,1,3.1-5.36,13.08,13.08,0,0,1,4.49-3.28,12.94,12.94,0,0,1,5.31-1.14,16.84,16.84,0,0,1,4.42.53,20.3,20.3,0,0,1,4,1.63V1h5.33ZM530,37.32V19.17a19.78,19.78,0,0,0-3.85-1.34,17.89,17.89,0,0,0-3.71-.36,8.41,8.41,0,0,0-7,3.11c-1.66,2.08-2.49,5-2.49,8.84s.64,6.61,1.93,8.56,3.34,2.94,6.17,2.94a11.51,11.51,0,0,0,4.59-1A19.26,19.26,0,0,0,530,37.32Z"/><path class="cls-1" d="M572.28,29.84H549a13.63,13.63,0,0,0,.87,5.09,9.67,9.67,0,0,0,2.41,3.55,9.48,9.48,0,0,0,3.5,2,14,14,0,0,0,4.46.68,17.62,17.62,0,0,0,6.5-1.29,16.15,16.15,0,0,0,4.66-2.53h.28v5.8a42.92,42.92,0,0,1-5.49,1.9,22.33,22.33,0,0,1-5.89.76q-7.87,0-12.3-4.26t-4.41-12.11q0-7.75,4.23-12.32a14.49,14.49,0,0,1,11.14-4.56q6.4,0,9.87,3.74T572.28,27Zm-5.18-4.08A9.4,9.4,0,0,0,565,19.28q-2.09-2.3-6.33-2.3a9.2,9.2,0,0,0-6.81,2.53A9.73,9.73,0,0,0,549,25.76Z"/><path class="cls-1" d="M606,45.11h-5.32V41.79a19.51,19.51,0,0,1-4.79,3.09,13.12,13.12,0,0,1-5.41,1.1,10.72,10.72,0,0,1-9-4.36c-2.22-2.9-3.33-6.94-3.33-12.09a20.88,20.88,0,0,1,1.15-7.16,16.74,16.74,0,0,1,3.1-5.36,13.08,13.08,0,0,1,4.49-3.28,12.94,12.94,0,0,1,5.31-1.14,16.89,16.89,0,0,1,4.42.53,20.54,20.54,0,0,1,4.05,1.63V1H606Zm-5.32-7.79V19.17a20,20,0,0,0-3.85-1.34,18,18,0,0,0-3.71-.36,8.4,8.4,0,0,0-7,3.11c-1.66,2.08-2.49,5-2.49,8.84s.64,6.61,1.92,8.56,3.35,2.94,6.18,2.94a11.51,11.51,0,0,0,4.59-1A19.48,19.48,0,0,0,600.69,37.32Z"/><path class="cls-1" d="M664.72,29.05a21.31,21.31,0,0,1-1.12,7.14,15.94,15.94,0,0,1-3,5.32,13.89,13.89,0,0,1-4.42,3.36,12.52,12.52,0,0,1-5.3,1.11,15.78,15.78,0,0,1-4.7-.63,22.09,22.09,0,0,1-4-1.72l-.34,1.48h-5V1h5.33V16.79a22,22,0,0,1,4.75-3,13.31,13.31,0,0,1,5.67-1.18,10.48,10.48,0,0,1,8.85,4.31Q664.72,21.21,664.72,29.05Zm-5.49.14c0-3.78-.63-6.64-1.87-8.59s-3.26-2.94-6-2.94a12.07,12.07,0,0,0-4.71,1,19.56,19.56,0,0,0-4.41,2.59V39.39a22.5,22.5,0,0,0,3.89,1.41,15.42,15.42,0,0,0,3.7.4,8.68,8.68,0,0,0,6.92-2.9C658.39,36.36,659.23,33.33,659.23,29.19Z"/><path class="cls-1" d="M700.23,13.47l-18.46,43.3h-5.69L682,43.58l-12.6-30.11h5.77l9.72,23.45,9.8-23.45Z"/><path class="cls-1" d="M744,44.82a27.81,27.81,0,0,1-3.27.65,22.56,22.56,0,0,1-3.16.26q-4.85,0-7.36-2.61c-1.69-1.73-2.52-4.52-2.52-8.35V18h-3.6V13.47h3.6V4.38H733v9.09h11V18H733V32.36c0,1.66,0,3,.11,3.9a6.4,6.4,0,0,0,.8,2.62,3.79,3.79,0,0,0,1.71,1.65,8,8,0,0,0,3.33.53,10.32,10.32,0,0,0,2.72-.39,18,18,0,0,0,2-.63H744Z"/><path class="cls-1" d="M776.9,45.11h-5.33v-18a31.09,31.09,0,0,0-.25-4.09,7.42,7.42,0,0,0-.94-3,4.32,4.32,0,0,0-2-1.77,8.79,8.79,0,0,0-3.45-.58,11.05,11.05,0,0,0-4.56,1.08,22.86,22.86,0,0,0-4.56,2.75V45.11h-5.32V1h5.32V17a21.78,21.78,0,0,1,5.15-3.22,13.49,13.49,0,0,1,5.47-1.17c3.42,0,6,1,7.82,3.09s2.69,5,2.69,8.89Z"/><path class="cls-1" d="M813.63,29.84H790.32a13.43,13.43,0,0,0,.88,5.09,9.55,9.55,0,0,0,2.41,3.55,9.44,9.44,0,0,0,3.49,2,14,14,0,0,0,4.46.68,17.58,17.58,0,0,0,6.5-1.29,16,16,0,0,0,4.66-2.53H813v5.8a43.6,43.6,0,0,1-5.5,1.9,22.27,22.27,0,0,1-5.89.76q-7.87,0-12.29-4.26t-4.42-12.11q0-7.75,4.24-12.32a14.48,14.48,0,0,1,11.14-4.56q6.4,0,9.87,3.74T813.63,27Zm-5.18-4.08a9.45,9.45,0,0,0-2.11-6.48Q804.26,17,800,17a9.2,9.2,0,0,0-6.81,2.53,9.79,9.79,0,0,0-2.88,6.25Z"/><path class="cls-1" d="M342,111.11H314.26V68.94H342v5H319.86V85.48H342v5H319.86v15.66H342Z"/><path class="cls-1" d="M370.25,85.28H370a18.12,18.12,0,0,0-2.31-.41,22.35,22.35,0,0,0-2.64-.13,10.9,10.9,0,0,0-4.76,1.09,22.24,22.24,0,0,0-4.42,2.82v22.46h-5.32V79.47h5.32v4.68a26,26,0,0,1,5.59-3.61,12.23,12.23,0,0,1,4.95-1.07c.92,0,1.59,0,2,.07s1,.14,1.87.27Z"/><path class="cls-1" d="M398.82,111.11h-5.29v-3.37c-.48.32-1.11.77-1.92,1.34a13.51,13.51,0,0,1-2.33,1.38,15.68,15.68,0,0,1-7.11,1.53,10.12,10.12,0,0,1-7.25-2.84,9.52,9.52,0,0,1-3-7.22,10,10,0,0,1,1.54-5.82,10.36,10.36,0,0,1,4.4-3.5,23.74,23.74,0,0,1,6.94-1.72c2.7-.31,5.6-.53,8.7-.68v-.82a6.42,6.42,0,0,0-.64-3,4.77,4.77,0,0,0-1.83-1.87,7.57,7.57,0,0,0-2.72-.87,23.46,23.46,0,0,0-3.31-.23,22.25,22.25,0,0,0-4.67.55,36.32,36.32,0,0,0-5.33,1.6h-.28V80.15q1.56-.42,4.5-.93a34.06,34.06,0,0,1,5.81-.51,26.88,26.88,0,0,1,5.82.55,11.47,11.47,0,0,1,4.29,1.88,8.48,8.48,0,0,1,2.72,3.37,12.51,12.51,0,0,1,.93,5.13Zm-5.29-7.79V94.51q-2.44.15-5.74.43a29.54,29.54,0,0,0-5.22.82,8.56,8.56,0,0,0-3.71,2,5.85,5.85,0,0,0,.22,7.88,7.74,7.74,0,0,0,5,1.37,11.89,11.89,0,0,0,5.13-1.09A23.49,23.49,0,0,0,393.53,103.32Z"/><path class="cls-1" d="M431.67,102a8.6,8.6,0,0,1-3.58,7.11q-3.58,2.78-9.78,2.77a23.76,23.76,0,0,1-6.45-.83,29,29,0,0,1-4.91-1.83v-6h.28a21.33,21.33,0,0,0,5.61,3,17.26,17.26,0,0,0,5.92,1.12,11.18,11.18,0,0,0,5.49-1.13,3.84,3.84,0,0,0,2-3.57,3.58,3.58,0,0,0-1.08-2.83A9.71,9.71,0,0,0,421,98.19c-.75-.17-1.74-.37-3-.59s-2.32-.47-3.32-.74q-4.17-1.1-5.91-3.24a8.07,8.07,0,0,1-1.74-5.25,8.61,8.61,0,0,1,.81-3.69,8.8,8.8,0,0,1,2.45-3.08,11.72,11.72,0,0,1,4-2.11,18,18,0,0,1,5.48-.78,24.8,24.8,0,0,1,5.74.69,22.27,22.27,0,0,1,4.83,1.69v5.69h-.29a18.82,18.82,0,0,0-4.95-2.53,17.07,17.07,0,0,0-5.72-1,10,10,0,0,0-4.93,1.12,3.6,3.6,0,0,0-2,3.33,3.54,3.54,0,0,0,1.22,2.94,9.52,9.52,0,0,0,3.85,1.62c1,.22,2.08.45,3.3.68s2.23.43,3,.62a11.26,11.26,0,0,1,5.72,2.92A7.66,7.66,0,0,1,431.67,102Z"/><path class="cls-1" d="M485.45,111.11h-5.32v-18a38.53,38.53,0,0,0-.19-3.94,8.34,8.34,0,0,0-.77-3,4.31,4.31,0,0,0-1.87-1.84,7.84,7.84,0,0,0-3.51-.63,10,10,0,0,0-4.48,1.12,27.81,27.81,0,0,0-4.47,2.85c.05.43.1.94.14,1.51s0,1.15,0,1.72v20.25h-5.32v-18c0-1.4-.06-2.73-.18-4a8.59,8.59,0,0,0-.78-3,4.29,4.29,0,0,0-1.87-1.83,8.13,8.13,0,0,0-3.51-.61A9.83,9.83,0,0,0,449,84.74a25.88,25.88,0,0,0-4.37,2.75v23.62h-5.33V79.47h5.33V83a23.14,23.14,0,0,1,5-3.23,12.27,12.27,0,0,1,5.29-1.16A10.48,10.48,0,0,1,460.35,80a8.39,8.39,0,0,1,3.35,3.77,26.59,26.59,0,0,1,5.89-3.92,13.74,13.74,0,0,1,5.7-1.2q5.2,0,7.69,3.15t2.47,8.82Z"/><path class="cls-1" d="M521.93,111.11h-5.32V107.6a26.19,26.19,0,0,1-5.16,3.25A12.77,12.77,0,0,1,506,112a10,10,0,0,1-7.76-3q-2.78-3-2.77-8.93V79.47h5.32v18a32.29,32.29,0,0,0,.23,4.12,7.5,7.5,0,0,0,1,2.93,4.59,4.59,0,0,0,2,1.81,8.69,8.69,0,0,0,3.54.57,11.28,11.28,0,0,0,4.52-1.08,20.94,20.94,0,0,0,4.58-2.75V79.47h5.32Z"/><path class="cls-1" d="M555,102a8.61,8.61,0,0,1-3.59,7.11q-3.57,2.78-9.78,2.77a23.69,23.69,0,0,1-6.44-.83,29.19,29.19,0,0,1-4.92-1.83v-6h.29a21.42,21.42,0,0,0,5.6,3,17.31,17.31,0,0,0,5.92,1.12,11.22,11.22,0,0,0,5.5-1.13,3.83,3.83,0,0,0,2-3.57,3.58,3.58,0,0,0-1.08-2.83,9.6,9.6,0,0,0-4.13-1.65c-.76-.17-1.74-.37-3-.59s-2.33-.47-3.33-.74q-4.16-1.1-5.9-3.24a8.07,8.07,0,0,1-1.74-5.25,8.6,8.6,0,0,1,.8-3.69,8.91,8.91,0,0,1,2.45-3.08,11.68,11.68,0,0,1,4-2.11,18,18,0,0,1,5.48-.78,24.65,24.65,0,0,1,5.73.69,21.9,21.9,0,0,1,4.83,1.69v5.69h-.28a18.74,18.74,0,0,0-5-2.53,17,17,0,0,0-5.72-1,10,10,0,0,0-4.93,1.12,3.92,3.92,0,0,0-.79,6.27,9.58,9.58,0,0,0,3.85,1.62c1,.22,2.08.45,3.3.68s2.23.43,3,.62A11.3,11.3,0,0,1,553,96.44,7.66,7.66,0,0,1,555,102Z"/><path class="cls-1" d="M598.9,94.91H583.47v15.43h-4.7V94.91H563.33V90.38h15.44V74.94h4.7V90.38H598.9Z"/><path class="cls-1" d="M658.49,81.68a13.67,13.67,0,0,1-1,5.2A12.49,12.49,0,0,1,654.78,91a14.07,14.07,0,0,1-5.15,3.27,22,22,0,0,1-7.51,1.09h-5.61v15.72h-5.6V68.94h11.44a27.51,27.51,0,0,1,6.43.64,14.55,14.55,0,0,1,4.67,2,11.51,11.51,0,0,1,3.72,4A12.59,12.59,0,0,1,658.49,81.68Zm-5.83.14a8.78,8.78,0,0,0-.77-3.79,6.26,6.26,0,0,0-2.32-2.63,9.42,9.42,0,0,0-3.1-1.27,21.44,21.44,0,0,0-4.41-.38h-5.55V90.6h4.73a20.46,20.46,0,0,0,5.53-.61,7.81,7.81,0,0,0,5.33-4.8A9.64,9.64,0,0,0,652.66,81.82Z"/><path class="cls-1" d="M685.2,85.28h-.29a18.12,18.12,0,0,0-2.31-.41,22.35,22.35,0,0,0-2.64-.13,10.9,10.9,0,0,0-4.76,1.09,22.24,22.24,0,0,0-4.42,2.82v22.46h-5.32V79.47h5.32v4.68a26,26,0,0,1,5.59-3.61,12.23,12.23,0,0,1,5-1.07c.92,0,1.59,0,2,.07s1,.14,1.87.27Z"/><path class="cls-1" d="M717.17,95.3q0,7.74-4,12.21a14.89,14.89,0,0,1-21.29,0Q688,103,688,95.3t3.95-12.22a14.89,14.89,0,0,1,21.29,0Q717.17,87.58,717.17,95.3Zm-5.49,0c0-4.09-.81-7.14-2.41-9.13a9,9,0,0,0-13.41,0c-1.6,2-2.39,5-2.39,9.13s.8,7,2.4,9a8.83,8.83,0,0,0,13.38,0C710.87,102.32,711.68,99.31,711.68,95.3Z"/><path class="cls-1" d="M751.07,107.51q0,8-3.65,11.81t-11.25,3.77a32.89,32.89,0,0,1-4.91-.36,37.7,37.7,0,0,1-4.72-1v-5.44h.29a41.65,41.65,0,0,0,4.13,1.26,22.09,22.09,0,0,0,5.67.75,13.39,13.39,0,0,0,4.5-.65,6.53,6.53,0,0,0,2.77-1.81,6.37,6.37,0,0,0,1.42-2.67,13.26,13.26,0,0,0,.43-3.48V106.8a20.65,20.65,0,0,1-4.61,2.88,14.19,14.19,0,0,1-5.59.95,11,11,0,0,1-9-4.1q-3.33-4.08-3.33-11.54a19.29,19.29,0,0,1,1.15-7,15.94,15.94,0,0,1,3.13-5.12A12.75,12.75,0,0,1,732,79.71a13.41,13.41,0,0,1,5.24-1.11,16.26,16.26,0,0,1,4.6.55,20.69,20.69,0,0,1,3.93,1.68l.33-1.36h5Zm-5.32-5.1V85.17a20.66,20.66,0,0,0-4-1.38,16.7,16.7,0,0,0-3.63-.41,8.59,8.59,0,0,0-6.91,3q-2.54,2.94-2.53,8.55c0,3.55.63,6.24,1.87,8.07s3.32,2.75,6.21,2.75a13.13,13.13,0,0,0,4.66-.89A17.36,17.36,0,0,0,745.75,102.41Z"/><path class="cls-1" d="M781.29,85.28H781a18.29,18.29,0,0,0-2.3-.41,22.65,22.65,0,0,0-2.65-.13,10.93,10.93,0,0,0-4.76,1.09,22.24,22.24,0,0,0-4.42,2.82v22.46h-5.32V79.47h5.32v4.68a26,26,0,0,1,5.59-3.61,12.23,12.23,0,0,1,4.95-1.07c.92,0,1.59,0,2,.07s1,.14,1.87.27Z"/><path class="cls-1" d="M809.86,111.11h-5.29v-3.37c-.48.32-1.11.77-1.92,1.34a13.51,13.51,0,0,1-2.33,1.38,15.68,15.68,0,0,1-7.11,1.53,10.12,10.12,0,0,1-7.25-2.84,9.52,9.52,0,0,1-3-7.22,10,10,0,0,1,1.54-5.82,10.36,10.36,0,0,1,4.4-3.5,23.74,23.74,0,0,1,6.94-1.72c2.7-.31,5.6-.53,8.7-.68v-.82a6.42,6.42,0,0,0-.64-3,4.7,4.7,0,0,0-1.83-1.87,7.57,7.57,0,0,0-2.72-.87,23.46,23.46,0,0,0-3.31-.23,22.32,22.32,0,0,0-4.67.55,36.32,36.32,0,0,0-5.33,1.6h-.28V80.15q1.56-.42,4.5-.93a34.06,34.06,0,0,1,5.81-.51,26.88,26.88,0,0,1,5.82.55,11.47,11.47,0,0,1,4.29,1.88,8.48,8.48,0,0,1,2.72,3.37,12.51,12.51,0,0,1,.93,5.13Zm-5.29-7.79V94.51q-2.45.15-5.74.43a29.54,29.54,0,0,0-5.22.82,8.56,8.56,0,0,0-3.71,2,5.85,5.85,0,0,0,.22,7.88,7.75,7.75,0,0,0,5,1.37,11.87,11.87,0,0,0,5.12-1.09A23.16,23.16,0,0,0,804.57,103.32Z"/><path class="cls-1" d="M866.28,111.11H861v-18c0-1.36-.06-2.68-.18-3.94a8.13,8.13,0,0,0-.78-3,4.31,4.31,0,0,0-1.87-1.84,7.81,7.81,0,0,0-3.51-.63,10,10,0,0,0-4.48,1.12,27.81,27.81,0,0,0-4.47,2.85c.06.43.1.94.14,1.51s.06,1.15.06,1.72v20.25h-5.33v-18c0-1.4-.06-2.73-.18-4a8.18,8.18,0,0,0-.78-3,4.24,4.24,0,0,0-1.87-1.83,8.13,8.13,0,0,0-3.51-.61,9.89,9.89,0,0,0-4.38,1.08,25.88,25.88,0,0,0-4.37,2.75v23.62h-5.33V79.47h5.33V83a23.2,23.2,0,0,1,5-3.23,12.19,12.19,0,0,1,5.28-1.16A10.48,10.48,0,0,1,841.17,80a8.47,8.47,0,0,1,3.36,3.77,26.14,26.14,0,0,1,5.89-3.92,13.66,13.66,0,0,1,5.69-1.2c3.47,0,6,1.05,7.69,3.15s2.48,5,2.48,8.82Z"/><path class="cls-1" d="M922.69,111.11h-5.32v-18c0-1.36-.07-2.68-.19-3.94a8.13,8.13,0,0,0-.78-3,4.21,4.21,0,0,0-1.87-1.84,7.81,7.81,0,0,0-3.51-.63,10,10,0,0,0-4.47,1.12,27.88,27.88,0,0,0-4.48,2.85c.06.43.11.94.14,1.51s.06,1.15.06,1.72v20.25H897v-18a38.63,38.63,0,0,0-.19-4,8.18,8.18,0,0,0-.78-3,4.22,4.22,0,0,0-1.86-1.83,8.21,8.21,0,0,0-3.52-.61,9.82,9.82,0,0,0-4.37,1.08,26,26,0,0,0-4.38,2.75v23.62h-5.32V79.47h5.32V83a23.2,23.2,0,0,1,5-3.23,12.22,12.22,0,0,1,5.28-1.16A10.45,10.45,0,0,1,897.58,80a8.42,8.42,0,0,1,3.36,3.77,26.37,26.37,0,0,1,5.89-3.92,13.7,13.7,0,0,1,5.69-1.2q5.22,0,7.69,3.15t2.48,8.82Z"/><path class="cls-1" d="M959.42,95.84H936.11a13.62,13.62,0,0,0,.88,5.09,9.58,9.58,0,0,0,2.41,3.55,9.48,9.48,0,0,0,3.5,2,14,14,0,0,0,4.46.68,17.62,17.62,0,0,0,6.5-1.29,16.15,16.15,0,0,0,4.66-2.53h.28v5.8a43.6,43.6,0,0,1-5.5,1.9,22.22,22.22,0,0,1-5.89.76q-7.86,0-12.29-4.26t-4.41-12.11q0-7.75,4.23-12.31a14.49,14.49,0,0,1,11.14-4.56q6.4,0,9.87,3.73T959.42,93Zm-5.18-4.08a9.4,9.4,0,0,0-2.11-6.48Q950,83,945.8,83A9.23,9.23,0,0,0,939,85.51a9.79,9.79,0,0,0-2.88,6.25Z"/><path class="cls-1" d="M340.79,161.3q0,7.74-4,12.21a14.87,14.87,0,0,1-21.28,0q-4-4.47-4-12.21t4-12.22a14.87,14.87,0,0,1,21.28,0Q340.79,153.58,340.79,161.3Zm-5.49,0c0-4.09-.8-7.14-2.41-9.13a9,9,0,0,0-13.41,0c-1.59,2-2.39,5-2.39,9.13s.8,7,2.41,9a8.83,8.83,0,0,0,13.38,0C334.49,168.32,335.3,165.31,335.3,161.3Z"/><path class="cls-1" d="M366.05,138.2h-.28c-.58-.17-1.35-.35-2.29-.53a13.61,13.61,0,0,0-2.49-.27q-3.44,0-5,1.52c-1,1-1.55,2.83-1.55,5.48v1.07h9.6V150h-9.43v27.16h-5.32V150h-3.6v-4.48h3.6v-1q0-5.64,2.8-8.66t8.1-3a26.22,26.22,0,0,1,3.22.17q1.43.16,2.61.39Z"/><path class="cls-1" d="M406.24,176.82a27.75,27.75,0,0,1-3.27.66,22.31,22.31,0,0,1-3.16.25q-4.85,0-7.36-2.61c-1.68-1.73-2.52-4.52-2.52-8.35V150h-3.6v-4.48h3.6v-9.09h5.32v9.09h11V150h-11v14.41q0,2.49.12,3.9a6.34,6.34,0,0,0,.79,2.62,3.83,3.83,0,0,0,1.71,1.65,8,8,0,0,0,3.33.53,10.66,10.66,0,0,0,2.72-.38,21.11,21.11,0,0,0,2-.64h.28Z"/><path class="cls-1" d="M439.12,177.11H433.8v-18a31.08,31.08,0,0,0-.26-4.1,7.48,7.48,0,0,0-.93-3,4.21,4.21,0,0,0-2-1.77,8.68,8.68,0,0,0-3.46-.59,11.05,11.05,0,0,0-4.56,1.08,23.44,23.44,0,0,0-4.56,2.75v23.62h-5.32V133H418v16a21.56,21.56,0,0,1,5.16-3.23,13.43,13.43,0,0,1,5.46-1.16c3.42,0,6,1,7.82,3.08s2.69,5,2.69,8.89Z"/><path class="cls-1" d="M475.85,161.84H452.54a13.62,13.62,0,0,0,.88,5.09,9.58,9.58,0,0,0,2.41,3.55,9.48,9.48,0,0,0,3.5,2,14,14,0,0,0,4.46.68,17.62,17.62,0,0,0,6.5-1.29,16.15,16.15,0,0,0,4.66-2.53h.28v5.8a43.46,43.46,0,0,1-5.49,1.9,22.35,22.35,0,0,1-5.9.76q-7.86,0-12.29-4.26t-4.41-12.11q0-7.75,4.23-12.31a14.46,14.46,0,0,1,11.14-4.56q6.4,0,9.87,3.73T475.85,159Zm-5.18-4.08a9.4,9.4,0,0,0-2.11-6.48q-2.08-2.29-6.33-2.29a9.19,9.19,0,0,0-6.81,2.52,9.79,9.79,0,0,0-2.88,6.25Z"/><path class="cls-1" d="M532.52,177.11H504.74V134.94h27.78v5H510.35v11.56h22.17v5H510.35v15.66h22.17Z"/><path class="cls-1" d="M567.21,177.11h-5.32V173.6a25.86,25.86,0,0,1-5.15,3.25A12.84,12.84,0,0,1,551.3,178a10,10,0,0,1-7.76-3.05q-2.77-3-2.78-8.93V145.47h5.33v18a32.47,32.47,0,0,0,.22,4.12,7.51,7.51,0,0,0,1,2.93,4.59,4.59,0,0,0,2,1.81,8.62,8.62,0,0,0,3.54.57,11.32,11.32,0,0,0,4.52-1.08,21.11,21.11,0,0,0,4.57-2.75V145.47h5.32Z"/><path class="cls-1" d="M597.43,151.28h-.28a18.12,18.12,0,0,0-2.31-.41,22.65,22.65,0,0,0-2.65-.13,10.93,10.93,0,0,0-4.76,1.09,22.18,22.18,0,0,0-4.41,2.82v22.46h-5.33V145.47H583v4.68a26.24,26.24,0,0,1,5.59-3.62,12.3,12.3,0,0,1,4.94-1.06c.93,0,1.6,0,2,.07s1,.14,1.87.27Z"/><path class="cls-1" d="M629.41,161.3q0,7.74-4,12.21a14.87,14.87,0,0,1-21.28,0q-4-4.47-3.95-12.21t3.95-12.22a14.87,14.87,0,0,1,21.28,0Q629.4,153.58,629.41,161.3Zm-5.5,0c0-4.09-.8-7.14-2.41-9.13a9,9,0,0,0-13.41,0c-1.59,2-2.39,5-2.39,9.13s.8,7,2.41,9a8.83,8.83,0,0,0,13.38,0C623.1,168.32,623.91,165.31,623.91,161.3Z"/><path class="cls-1" d="M665.49,160.91a21.3,21.3,0,0,1-1.11,7,15.43,15.43,0,0,1-3.11,5.39,13,13,0,0,1-4.41,3.24,12.79,12.79,0,0,1-5.36,1.15,17.17,17.17,0,0,1-4.47-.54,18.35,18.35,0,0,1-4.06-1.67v13.26h-5.32V145.47H643v3.32a20.77,20.77,0,0,1,4.77-3,13.55,13.55,0,0,1,5.65-1.2,10.43,10.43,0,0,1,8.91,4.31Q665.48,153.23,665.49,160.91Zm-5.5.14c0-3.81-.65-6.67-2-8.55a6.81,6.81,0,0,0-6-2.84,11.48,11.48,0,0,0-4.61,1,21.18,21.18,0,0,0-4.45,2.6v17.93a21.69,21.69,0,0,0,3.89,1.39,17.26,17.26,0,0,0,3.7.36,8.53,8.53,0,0,0,6.94-3Q660,166.94,660,161.05Z"/><path class="cls-1" d="M700.26,161.84H677a13.63,13.63,0,0,0,.87,5.09,9.58,9.58,0,0,0,2.41,3.55,9.48,9.48,0,0,0,3.5,2,14,14,0,0,0,4.46.68,17.62,17.62,0,0,0,6.5-1.29,16.15,16.15,0,0,0,4.66-2.53h.28v5.8a43.46,43.46,0,0,1-5.49,1.9,22.35,22.35,0,0,1-5.9.76q-7.86,0-12.29-4.26t-4.41-12.11q0-7.75,4.23-12.31a14.46,14.46,0,0,1,11.14-4.56q6.41,0,9.87,3.73T700.26,159Zm-5.18-4.08a9.4,9.4,0,0,0-2.11-6.48q-2.09-2.29-6.33-2.29a9.19,9.19,0,0,0-6.81,2.52,9.73,9.73,0,0,0-2.87,6.25Z"/><path class="cls-1" d="M732.92,177.11h-5.3v-3.37l-1.91,1.34a13.21,13.21,0,0,1-2.34,1.38,15.68,15.68,0,0,1-7.11,1.53,10.13,10.13,0,0,1-7.25-2.84,9.52,9.52,0,0,1-3-7.22,10,10,0,0,1,1.54-5.82,10.33,10.33,0,0,1,4.41-3.5,23.65,23.65,0,0,1,6.94-1.72c2.7-.31,5.59-.53,8.69-.68v-.82a6.3,6.3,0,0,0-.64-3,4.68,4.68,0,0,0-1.82-1.87,7.64,7.64,0,0,0-2.72-.87,23.6,23.6,0,0,0-3.32-.23,22.4,22.4,0,0,0-4.67.55,36.21,36.21,0,0,0-5.32,1.6h-.29v-5.41c1-.28,2.54-.59,4.51-.93a34,34,0,0,1,5.8-.51,26.88,26.88,0,0,1,5.82.55,11.47,11.47,0,0,1,4.29,1.88,8.39,8.39,0,0,1,2.72,3.37,12.5,12.5,0,0,1,.94,5.13Zm-5.3-7.79v-8.81c-1.62.1-3.54.24-5.73.43a28.77,28.77,0,0,0-5.23.82,8.56,8.56,0,0,0-3.71,2,5.83,5.83,0,0,0,.23,7.88,7.7,7.7,0,0,0,5,1.37,11.89,11.89,0,0,0,5.13-1.09A23.41,23.41,0,0,0,727.62,169.32Z"/><path class="cls-1" d="M769.62,177.11h-5.33v-18A31.14,31.14,0,0,0,764,155a7.48,7.48,0,0,0-.93-3,4.31,4.31,0,0,0-2-1.77,8.68,8.68,0,0,0-3.46-.59,11.05,11.05,0,0,0-4.56,1.08,23.44,23.44,0,0,0-4.56,2.75v23.62h-5.32V145.47h5.32V149a21.36,21.36,0,0,1,5.16-3.23,13.4,13.4,0,0,1,5.46-1.16c3.42,0,6,1,7.82,3.08s2.69,5,2.69,8.89Z"/><path class="cls-1" d="M832.43,160.17a28.43,28.43,0,0,1-1,8,12.93,12.93,0,0,1-3.3,5.68A13.27,13.27,0,0,1,823,177a20.86,20.86,0,0,1-6.8,1,20.62,20.62,0,0,1-6.91-1.05,12.94,12.94,0,0,1-5-3.09,13.45,13.45,0,0,1-3.3-5.61,27.9,27.9,0,0,1-1-8.07V134.94h5.61v25.51a24.68,24.68,0,0,0,.47,5.41,10.5,10.5,0,0,0,1.57,3.6,7.77,7.77,0,0,0,3.38,2.78,12.86,12.86,0,0,0,5.14.93,13,13,0,0,0,5.16-.92,7.75,7.75,0,0,0,3.4-2.79,10.73,10.73,0,0,0,1.57-3.69,24.25,24.25,0,0,0,.47-5.17V134.94h5.6Z"/><path class="cls-1" d="M869.17,177.11h-5.33v-18a31.14,31.14,0,0,0-.25-4.1,7.47,7.47,0,0,0-.94-3,4.21,4.21,0,0,0-2-1.77,8.66,8.66,0,0,0-3.45-.59,11,11,0,0,0-4.56,1.08,22.86,22.86,0,0,0-4.56,2.75v23.62h-5.33V145.47H848V149a21.51,21.51,0,0,1,5.15-3.23,13.48,13.48,0,0,1,5.47-1.16c3.42,0,6,1,7.81,3.08s2.7,5,2.7,8.89Z"/><path class="cls-1" d="M885.14,140.18h-6v-5.52h6Zm-.34,36.93h-5.33V145.47h5.33Z"/><path class="cls-1" d="M922.29,161.3q0,7.74-4,12.21a14.87,14.87,0,0,1-21.28,0q-4-4.47-3.95-12.21t3.95-12.22a14.87,14.87,0,0,1,21.28,0Q922.29,153.58,922.29,161.3Zm-5.49,0c0-4.09-.8-7.14-2.41-9.13a9,9,0,0,0-13.41,0c-1.59,2-2.39,5-2.39,9.13s.8,7,2.41,9a8.83,8.83,0,0,0,13.38,0C916,168.32,916.8,165.31,916.8,161.3Z"/><path class="cls-1" d="M957,177.11h-5.33v-18a31.14,31.14,0,0,0-.25-4.1,7.31,7.31,0,0,0-.94-3,4.21,4.21,0,0,0-2-1.77,8.63,8.63,0,0,0-3.45-.59,11,11,0,0,0-4.56,1.08,22.86,22.86,0,0,0-4.56,2.75v23.62h-5.32V145.47h5.32V149a21.51,21.51,0,0,1,5.15-3.23,13.48,13.48,0,0,1,5.47-1.16c3.42,0,6,1,7.82,3.08s2.69,5,2.69,8.89Z"/></g></g></svg>