<svg xmlns="http://www.w3.org/2000/svg" viewBox="0 0 368.28 333.21"><defs><style>.cls-1{fill:#1f1a18;}.cls-2,.cls-6{font-size:63px;fill:#231f20;font-family:SairaCondensed-Bold, Saira Condensed;font-weight:700;}.cls-2,.cls-8{letter-spacing:-0.01em;}.cls-3{fill:#df5526;}.cls-4{fill:#e4be65;}.cls-5{fill:#bda15c;}.cls-6{letter-spacing:-0.01em;}.cls-7{letter-spacing:-0.01em;}</style></defs><g id="Layer_2" data-name="Layer 2"><g id="Layer_1-2" data-name="Layer 1"><path class="cls-1" d="M60.87,74.32s32,.12,45.8.12,13.07-.87,13.07,12.18,1.3,20.53-5.88,35.7c-18.42,41.94-38.3,83.27-54.48,126.19-2.16,5.72,4.34,4.56,4.34,4.56s39,.3,48.18.3,8,3.26,8,14.82-.18,21-.18,29.95-.47,8-11,8-82.53-.18-97.23-.18C-.84,305.94,0,306.15,0,288.77,0,273.87-.5,259.6,4.78,242c25.42-55.28,35-78.05,42.5-95.83,9.45-22.25,13.2-24,.86-23.16H10c-10,0-8.66-3.65-8.63-11.57s.09-18.14.09-27.65S.07,74.32,13.6,74.32Z"/><path class="cls-1" d="M365.09,129.7c-5-29-19.36-47.8-47.47-53.54-11.41-1.76-40.73-1.46-40.73-1.46s-20.47,0-29.19,0c-10.26,0-11,2.17-11,13.85V209.13s.39,79.6.39,89.14-.39,8.43,9.38,8.43H282.5c6.58,0,6.79,0,6.79-10.5,0-15.41-.27-19.94-.27-36.24s-1.09-16,18.53-16c36.41-1.4,50.59-22.51,56.36-44.41C370,176.31,369.06,153,365.09,129.7Zm-52.34,49.71a22,22,0,0,1-3.95,6.83,11.52,11.52,0,0,1-12.35,4.11c-5-1.28-6.54-5.64-6.72-10.1-.33-7.95-.09-15.93-.09-23.9h0c0-7-.25-15-.15-22,.06-4.26,0-7.47,4.5-9.08a11.12,11.12,0,0,1,12.61,3c1.63,1.74,3.72,3.89,6,10.85C315.34,149.85,317.68,164.09,312.75,179.41Z"/><text class="cls-2" transform="translate(17.55 53.42)">za in </text><path class="cls-3" d="M203,84.81c-11.94,0-14.86-.12-25.08-.21-8.83-1.74-7-1.24-14.24-2.93-5.33-1.06-6.47-5.11-7.09-8.49-4.35-23.72-4.94-44.4,13.78-63.19,15.22-15.29,34.21-12.71,45.7,5.54,12.23,19.44,6.15,48.92-3.13,62.71C210.61,81.69,207.51,84.45,203,84.81Z"/><polygon class="cls-4" points="177.91 84.6 152.06 333.21 177.91 333.21 202.99 84.81 177.91 84.6"/><polygon class="cls-5" points="163.67 81.67 177.91 84.6 152.06 333.21 138.78 321.48 163.67 81.67"/><text class="cls-6" transform="translate(234.22 53.42)">p<tspan class="cls-7" x="27.47" y="0">ro</tspan><tspan class="cls-8" x="72.7" y="0">ti</tspan></text></g></g></svg>